<svg width="170" height="48" viewBox="0 0 170 48" fill="none" xmlns="http://www.w3.org/2000/svg">
<path d="M41.6452 37.8811C41.6452 42.6501 37.7792 46.5161 33.0101 46.5161C28.2411 46.5161 24.375 42.6501 24.375 37.8811C24.375 33.1121 28.2411 29.2461 33.0101 29.2461C37.7792 29.2461 41.6452 33.1121 41.6452 37.8811Z" fill="#00C480" stroke="white"/>
<path d="M47.7316 16.5649C47.7316 24.6973 41.1389 31.2899 33.0064 31.2899C24.8739 31.2899 18.2812 24.6973 18.2812 16.5649C18.2812 8.43246 24.8739 1.83984 33.0064 1.83984C41.1389 1.83984 47.7316 8.43246 47.7316 16.5649Z" fill="#7300C4" stroke="white"/>
<path d="M49.5009 30.4495C49.5009 36.9002 44.2715 42.1296 37.8208 42.1296C31.37 42.1296 26.1406 36.9002 26.1406 30.4495C26.1406 23.9989 31.37 18.7695 37.8208 18.7695C44.2715 18.7695 49.5009 23.9989 49.5009 30.4495Z" fill="#C4009A" stroke="white"/>
<path d="M28.489 9.13501C28.489 13.904 24.6229 17.77 19.8539 17.77C15.0848 17.77 11.2188 13.904 11.2188 9.13501C11.2188 4.36603 15.0848 0.5 19.8539 0.5C24.6229 0.5 28.489 4.36603 28.489 9.13501Z" fill="#E8D104" stroke="white"/>
<path d="M34.5754 31.7875C34.5754 39.9199 27.9827 46.5125 19.8502 46.5125C11.7177 46.5125 5.125 39.9199 5.125 31.7875C5.125 23.6551 11.7177 17.0625 19.8502 17.0625C27.9827 17.0625 34.5754 23.6551 34.5754 31.7875Z" fill="#C46600" stroke="white"/>
<path d="M29.9504 20.768C29.9504 28.9004 23.3577 35.493 15.2252 35.493C7.09269 35.493 0.5 28.9004 0.5 20.768C0.5 12.6356 7.09269 6.04297 15.2252 6.04297C23.3577 6.04297 29.9504 12.6356 29.9504 20.768Z" fill="#0073C4" stroke="white"/>
<path d="M74.032 15.272V32H71.848V15.272H74.032ZM84.1623 18.608C85.7623 18.608 87.0583 19.096 88.0503 20.072C89.0423 21.032 89.5383 22.424 89.5383 24.248V32H87.3783V24.56C87.3783 23.248 87.0503 22.248 86.3943 21.56C85.7383 20.856 84.8423 20.504 83.7063 20.504C82.5543 20.504 81.6343 20.864 80.9463 21.584C80.2743 22.304 79.9383 23.352 79.9383 24.728V32H77.7543V18.848H79.9383V20.72C80.3703 20.048 80.9543 19.528 81.6903 19.16C82.4423 18.792 83.2663 18.608 84.1623 18.608ZM95.7698 20.648V28.4C95.7698 29.04 95.9058 29.496 96.1778 29.768C96.4498 30.024 96.9218 30.152 97.5938 30.152H99.2018V32H97.2338C96.0178 32 95.1058 31.72 94.4978 31.16C93.8898 30.6 93.5858 29.68 93.5858 28.4V20.648H91.8818V18.848H93.5858V15.536H95.7698V18.848H99.2018V20.648H95.7698ZM113.848 24.92C113.848 25.336 113.824 25.776 113.776 26.24H103.264C103.344 27.536 103.784 28.552 104.584 29.288C105.4 30.008 106.384 30.368 107.536 30.368C108.48 30.368 109.264 30.152 109.888 29.72C110.528 29.272 110.976 28.68 111.232 27.944H113.584C113.232 29.208 112.528 30.24 111.472 31.04C110.416 31.824 109.104 32.216 107.536 32.216C106.288 32.216 105.168 31.936 104.176 31.376C103.2 30.816 102.432 30.024 101.872 29C101.312 27.96 101.032 26.76 101.032 25.4C101.032 24.04 101.304 22.848 101.848 21.824C102.392 20.8 103.152 20.016 104.128 19.472C105.12 18.912 106.256 18.632 107.536 18.632C108.784 18.632 109.888 18.904 110.848 19.448C111.808 19.992 112.544 20.744 113.056 21.704C113.584 22.648 113.848 23.72 113.848 24.92ZM111.592 24.464C111.592 23.632 111.408 22.92 111.04 22.328C110.672 21.72 110.168 21.264 109.528 20.96C108.904 20.64 108.208 20.48 107.44 20.48C106.336 20.48 105.392 20.832 104.608 21.536C103.84 22.24 103.4 23.216 103.288 24.464H111.592ZM118.915 14.24V32H116.731V14.24H118.915ZM124.821 14.24V32H122.637V14.24H124.821ZM140.543 24.92C140.543 25.336 140.519 25.776 140.471 26.24H129.959C130.039 27.536 130.479 28.552 131.279 29.288C132.095 30.008 133.079 30.368 134.231 30.368C135.175 30.368 135.959 30.152 136.583 29.72C137.223 29.272 137.671 28.68 137.927 27.944H140.279C139.927 29.208 139.223 30.24 138.167 31.04C137.111 31.824 135.799 32.216 134.231 32.216C132.983 32.216 131.863 31.936 130.871 31.376C129.895 30.816 129.127 30.024 128.567 29C128.007 27.96 127.727 26.76 127.727 25.4C127.727 24.04 127.999 22.848 128.543 21.824C129.087 20.8 129.847 20.016 130.823 19.472C131.815 18.912 132.951 18.632 134.231 18.632C135.479 18.632 136.583 18.904 137.543 19.448C138.503 19.992 139.239 20.744 139.751 21.704C140.279 22.648 140.543 23.72 140.543 24.92ZM138.287 24.464C138.287 23.632 138.103 22.92 137.735 22.328C137.367 21.72 136.863 21.264 136.223 20.96C135.599 20.64 134.903 20.48 134.135 20.48C133.031 20.48 132.087 20.832 131.303 21.536C130.535 22.24 130.095 23.216 129.983 24.464H138.287ZM150.29 32L147.17 27.104L144.17 32H141.89L146.138 25.472L141.89 18.848H144.362L147.482 23.72L150.458 18.848H152.738L148.514 25.352L152.762 32H150.29ZM154.095 25.376C154.095 24.032 154.367 22.856 154.911 21.848C155.455 20.824 156.199 20.032 157.143 19.472C158.103 18.912 159.167 18.632 160.335 18.632C161.487 18.632 162.487 18.88 163.335 19.376C164.183 19.872 164.815 20.496 165.231 21.248V18.848H167.439V32H165.231V29.552C164.799 30.32 164.151 30.96 163.287 31.472C162.439 31.968 161.447 32.216 160.311 32.216C159.143 32.216 158.087 31.928 157.143 31.352C156.199 30.776 155.455 29.968 154.911 28.928C154.367 27.888 154.095 26.704 154.095 25.376ZM165.231 25.4C165.231 24.408 165.031 23.544 164.631 22.808C164.231 22.072 163.687 21.512 162.999 21.128C162.327 20.728 161.583 20.528 160.767 20.528C159.951 20.528 159.207 20.72 158.535 21.104C157.863 21.488 157.327 22.048 156.927 22.784C156.527 23.52 156.327 24.384 156.327 25.376C156.327 26.384 156.527 27.264 156.927 28.016C157.327 28.752 157.863 29.32 158.535 29.72C159.207 30.104 159.951 30.296 160.767 30.296C161.583 30.296 162.327 30.104 162.999 29.72C163.687 29.32 164.231 28.752 164.631 28.016C165.031 27.264 165.231 26.392 165.231 25.4Z" fill="white"/>
</svg>
